<svg xmlns="http://www.w3.org/2000/svg" xmlns:xlink="http://www.w3.org/1999/xlink" width="500" zoomAndPan="magnify" viewBox="0 0 375 374.999991" height="500" preserveAspectRatio="xMidYMid meet" version="1.0"><defs><g/><clipPath id="b9388e3d7d"><path d="M 94.726562 166.609375 L 137.21875 166.609375 L 137.21875 209.359375 L 94.726562 209.359375 Z M 94.726562 166.609375 " clip-rule="nonzero"/></clipPath></defs><rect x="-37.5" width="450" fill="#ffffff" y="-37.499999" height="449.999989" fill-opacity="1"/><rect x="-37.5" width="450" fill="#ffffff" y="-37.499999" height="449.999989" fill-opacity="1"/><g fill="#000000" fill-opacity="1"><g transform="translate(136.180331, 206.564821)"><g><path d="M 6.5625 -4.375 C 3.25 -7.988281 1.59375 -12.414062 1.59375 -17.65625 C 1.59375 -22.90625 3.25 -27.347656 6.5625 -30.984375 C 9.875 -34.617188 14.082031 -36.4375 19.1875 -36.4375 C 23.875 -36.4375 27.738281 -34.960938 30.78125 -32.015625 L 30.78125 -35.40625 L 43 -35.40625 L 43 0 L 30.921875 0 L 30.921875 -4 L 30.78125 -4 C 27.738281 -0.644531 23.875 1.03125 19.1875 1.03125 C 14.082031 1.03125 9.875 -0.769531 6.5625 -4.375 Z M 16.9375 -23.671875 C 15.351562 -22.109375 14.5625 -20.109375 14.5625 -17.671875 C 14.5625 -15.234375 15.320312 -13.242188 16.84375 -11.703125 C 18.363281 -10.160156 20.363281 -9.390625 22.84375 -9.390625 C 25.238281 -9.390625 27.207031 -10.171875 28.75 -11.734375 C 30.289062 -13.296875 31.0625 -15.273438 31.0625 -17.671875 C 31.0625 -20.109375 30.265625 -22.109375 28.671875 -23.671875 C 27.085938 -25.234375 25.144531 -26.015625 22.84375 -26.015625 C 20.5 -26.015625 18.53125 -25.234375 16.9375 -23.671875 Z M 16.9375 -23.671875 "/></g></g></g><g fill="#000000" fill-opacity="1"><g transform="translate(178.478775, 206.564821)"><g><path d="M 2.546875 8.703125 L 12.5625 3.796875 C 14.40625 6.828125 17.601562 8.34375 22.15625 8.34375 C 24.269531 8.34375 26.234375 7.664062 28.046875 6.3125 C 29.867188 4.957031 30.78125 2.875 30.78125 0.0625 L 30.78125 -2.546875 C 28.613281 -0.160156 24.75 1.03125 19.1875 1.03125 C 14.082031 1.03125 9.875 -0.769531 6.5625 -4.375 C 3.25 -7.988281 1.59375 -12.414062 1.59375 -17.65625 C 1.59375 -22.90625 3.25 -27.347656 6.5625 -30.984375 C 9.875 -34.617188 14.082031 -36.4375 19.1875 -36.4375 C 23.738281 -36.4375 27.535156 -35.035156 30.578125 -32.234375 L 30.78125 -32.234375 L 30.78125 -35.40625 L 43 -35.40625 L 43 0.96875 C 43 6.71875 41.085938 11.15625 37.265625 14.28125 C 33.453125 17.414062 28.414062 18.984375 22.15625 18.984375 C 12.03125 18.984375 5.492188 15.554688 2.546875 8.703125 Z M 16.9375 -23.671875 C 15.351562 -22.109375 14.5625 -20.109375 14.5625 -17.671875 C 14.5625 -15.234375 15.320312 -13.242188 16.84375 -11.703125 C 18.363281 -10.160156 20.363281 -9.390625 22.84375 -9.390625 C 25.238281 -9.390625 27.207031 -10.171875 28.75 -11.734375 C 30.289062 -13.296875 31.0625 -15.273438 31.0625 -17.671875 C 31.0625 -20.109375 30.265625 -22.109375 28.671875 -23.671875 C 27.085938 -25.234375 25.144531 -26.015625 22.84375 -26.015625 C 20.5 -26.015625 18.53125 -25.234375 16.9375 -23.671875 Z M 16.9375 -23.671875 "/></g></g></g><g fill="#000000" fill-opacity="1"><g transform="translate(220.777218, 206.564821)"><g><path d="M 4.140625 0 L 4.140625 -59.359375 L 16.359375 -59.359375 L 16.359375 0 Z M 4.140625 0 "/></g></g></g><g fill="#000000" fill-opacity="1"><g transform="translate(236.440395, 206.564821)"><g><path d="M 39.953125 -16.015625 L 14.28125 -16.015625 C 14.28125 -13.523438 15.085938 -11.679688 16.703125 -10.484375 C 18.316406 -9.296875 20.066406 -8.703125 21.953125 -8.703125 C 23.929688 -8.703125 25.492188 -8.960938 26.640625 -9.484375 C 27.785156 -10.015625 29.097656 -11.0625 30.578125 -12.625 L 39.40625 -8.21875 C 35.726562 -2.050781 29.609375 1.03125 21.046875 1.03125 C 15.710938 1.03125 11.132812 -0.796875 7.3125 -4.453125 C 3.5 -8.109375 1.59375 -12.507812 1.59375 -17.65625 C 1.59375 -22.8125 3.5 -27.226562 7.3125 -30.90625 C 11.132812 -34.59375 15.710938 -36.4375 21.046875 -36.4375 C 26.660156 -36.4375 31.226562 -34.8125 34.75 -31.5625 C 38.269531 -28.320312 40.03125 -23.691406 40.03125 -17.671875 C 40.03125 -16.835938 40.003906 -16.285156 39.953125 -16.015625 Z M 14.625 -22.78125 L 28.09375 -22.78125 C 27.8125 -24.613281 27.082031 -26.023438 25.90625 -27.015625 C 24.738281 -28.003906 23.234375 -28.5 21.390625 -28.5 C 19.367188 -28.5 17.757812 -27.96875 16.5625 -26.90625 C 15.363281 -25.851562 14.71875 -24.476562 14.625 -22.78125 Z M 14.625 -22.78125 "/></g></g></g><g clip-path="url(#b9388e3d7d)"><path fill="#000000" d="M 115.796875 166.617188 C 127.632812 166.617188 137.21875 176.214844 137.21875 188.054688 C 137.21875 188.722656 137.183594 189.386719 137.121094 190.042969 C 136.972656 191.21875 135.046875 203.613281 120.859375 202.007812 C 113.824219 201.21875 110.855469 193.324219 110.445312 187.953125 C 104.796875 203.527344 117.980469 209.203125 118.335938 209.351562 L 118.316406 209.351562 C 111.328125 209.027344 103.976562 202.457031 104.917969 193.265625 C 105.628906 186.332031 110.902344 183.839844 112.328125 183.285156 C 112.441406 183.234375 112.566406 183.1875 112.6875 183.160156 C 120.105469 181.1875 120.800781 184.804688 120.800781 184.804688 C 120.800781 184.804688 124.035156 180.710938 117.855469 177.761719 C 117.855469 177.761719 115.488281 176.945312 112.988281 176.796875 C 112.222656 178.121094 110.691406 177.460938 110.691406 177.460938 L 109.800781 176.097656 C 109.441406 175.617188 108.460938 175.953125 108.460938 175.953125 C 109.25 175.335938 109.871094 175.542969 109.871094 175.542969 C 109.933594 175.558594 110.050781 175.597656 110.199219 175.65625 C 110.199219 175.65625 114.4375 176.253906 117.671875 177.378906 C 117.121094 176.324219 115.121094 173.367188 109.675781 172.792969 C 102.226562 172.003906 95.636719 177.527344 94.480469 186.035156 C 94.472656 186.070312 94.472656 186.097656 94.46875 186.132812 C 95.4375 175.195312 104.613281 166.617188 115.796875 166.617188 Z M 111.515625 186.296875 C 111.515625 186.296875 112.160156 195.71875 118.671875 198.226562 C 125.179688 200.730469 131.074219 196.078125 131.074219 196.078125 C 116.800781 197.910156 111.515625 186.296875 111.515625 186.296875 Z M 111.515625 186.296875 " fill-opacity="1" fill-rule="nonzero"/></g><g fill="#000000" fill-opacity="1"><g transform="translate(98.578877, 228.043016)"><g><path d="M 0.890625 0 L 0.890625 -12.625 L 14.234375 -12.625 L 14.234375 -10.21875 L 3.734375 -10.21875 L 3.734375 -6.515625 L 13.140625 -6.515625 L 13.140625 -4.125 L 3.734375 -4.125 L 3.734375 0 Z M 0.890625 0 "/></g></g></g><g fill="#000000" fill-opacity="1"><g transform="translate(114.972806, 228.043016)"><g><path d="M 0.890625 0 L 0.890625 -12.625 L 3.734375 -12.625 L 3.734375 -2.390625 L 13.859375 -2.390625 L 13.859375 0 Z M 0.890625 0 "/></g></g></g><g fill="#000000" fill-opacity="1"><g transform="translate(131.006035, 228.043016)"><g><path d="M 8.640625 0.1875 C 6.785156 0.1875 5.273438 -0.0664062 4.109375 -0.578125 C 2.941406 -1.097656 2.082031 -1.84375 1.53125 -2.8125 C 0.976562 -3.78125 0.703125 -4.953125 0.703125 -6.328125 C 0.703125 -7.703125 0.976562 -8.867188 1.53125 -9.828125 C 2.082031 -10.796875 2.941406 -11.53125 4.109375 -12.03125 C 5.273438 -12.539062 6.785156 -12.796875 8.640625 -12.796875 C 10.484375 -12.796875 11.988281 -12.539062 13.15625 -12.03125 C 14.320312 -11.519531 15.179688 -10.785156 15.734375 -9.828125 C 16.296875 -8.867188 16.578125 -7.703125 16.578125 -6.328125 C 16.578125 -4.953125 16.296875 -3.78125 15.734375 -2.8125 C 15.179688 -1.851562 14.320312 -1.113281 13.15625 -0.59375 C 11.988281 -0.0703125 10.484375 0.1875 8.640625 0.1875 Z M 8.640625 -2.21875 C 10.421875 -2.21875 11.710938 -2.535156 12.515625 -3.171875 C 13.316406 -3.816406 13.71875 -4.867188 13.71875 -6.328125 C 13.71875 -7.773438 13.316406 -8.816406 12.515625 -9.453125 C 11.722656 -10.085938 10.429688 -10.40625 8.640625 -10.40625 C 6.859375 -10.40625 5.5625 -10.085938 4.75 -9.453125 C 3.945312 -8.828125 3.546875 -7.785156 3.546875 -6.328125 C 3.546875 -4.867188 3.945312 -3.816406 4.75 -3.171875 C 5.5625 -2.535156 6.859375 -2.21875 8.640625 -2.21875 Z M 8.640625 -2.21875 "/></g></g></g><g fill="#000000" fill-opacity="1"><g transform="translate(149.744497, 228.043016)"><g><path d="M 5.890625 0 L 0.703125 -12.625 L 3.78125 -12.625 L 7.828125 -2.578125 L 12.109375 -12.625 L 15.65625 -12.625 L 19.9375 -2.578125 L 23.984375 -12.625 L 27.0625 -12.625 L 21.875 0 L 18.046875 0 L 13.890625 -9.625 L 9.71875 0 Z M 5.890625 0 "/></g></g></g></svg>