<svg xmlns="http://www.w3.org/2000/svg" xmlns:xlink="http://www.w3.org/1999/xlink" width="250" zoomAndPan="magnify" viewBox="0 0 187.5 74.999997" height="100" preserveAspectRatio="xMidYMid meet" version="1.0"><defs><clipPath id="89ebc19387"><path d="M 0 0.101562 L 187 0.101562 L 187 74.898438 L 0 74.898438 Z M 0 0.101562 " clip-rule="nonzero"/></clipPath><clipPath id="0de0acaf68"><path d="M 18.105469 19 L 55.070312 19 L 55.070312 56.234375 L 18.105469 56.234375 Z M 18.105469 19 " clip-rule="nonzero"/></clipPath></defs><g clip-path="url(#89ebc19387)"><rect x="-18.75" width="225" fill="#ffffff" y="-7.5" height="89.999996" fill-opacity="1"/><rect x="-18.75" width="225" fill="#ffffff" y="-7.5" height="89.999996" fill-opacity="1"/><rect x="-18.75" width="225" fill="#ffffff" y="-7.5" height="89.999996" fill-opacity="1"/><rect x="-18.75" width="225" fill="#ffffff" y="-7.5" height="89.999996" fill-opacity="1"/></g><path fill="#000000" d="M 59.878906 49.988281 C 56.992188 46.839844 55.554688 42.988281 55.554688 38.421875 C 55.554688 33.84375 56.992188 29.976562 59.878906 26.808594 C 62.757812 23.644531 66.414062 22.054688 70.855469 22.054688 C 74.933594 22.054688 78.292969 23.34375 80.941406 25.910156 L 80.941406 22.957031 L 91.574219 22.957031 L 91.574219 53.800781 L 81.066406 53.800781 L 81.066406 50.316406 L 80.941406 50.316406 C 78.292969 53.242188 74.933594 54.699219 70.855469 54.699219 C 66.414062 54.699219 62.757812 53.128906 59.878906 49.988281 Z M 68.902344 33.179688 C 67.519531 34.539062 66.832031 36.28125 66.832031 38.40625 C 66.832031 40.527344 67.496094 42.265625 68.820312 43.605469 C 70.140625 44.953125 71.878906 45.621094 74.039062 45.621094 C 76.121094 45.621094 77.835938 44.941406 79.175781 43.582031 C 80.515625 42.214844 81.191406 40.492188 81.191406 38.40625 C 81.191406 36.28125 80.496094 34.539062 79.109375 33.179688 C 77.730469 31.816406 76.039062 31.140625 74.039062 31.140625 C 72.003906 31.140625 70.285156 31.816406 68.902344 33.179688 Z M 68.902344 33.179688 " fill-opacity="1" fill-rule="nonzero"/><path fill="#000000" d="M 93.179688 61.382812 L 101.890625 57.105469 C 103.496094 59.746094 106.273438 61.070312 110.238281 61.070312 C 112.078125 61.070312 113.789062 60.476562 115.363281 59.300781 C 116.949219 58.117188 117.742188 56.304688 117.742188 53.851562 L 117.742188 51.582031 C 115.855469 53.660156 112.496094 54.699219 107.65625 54.699219 C 103.214844 54.699219 99.554688 53.128906 96.667969 49.988281 C 93.789062 46.839844 92.351562 42.988281 92.351562 38.421875 C 92.351562 33.84375 93.789062 29.976562 96.667969 26.808594 C 99.554688 23.644531 103.214844 22.054688 107.65625 22.054688 C 111.613281 22.054688 114.914062 23.28125 117.566406 25.722656 L 117.742188 25.722656 L 117.742188 22.957031 L 128.367188 22.957031 L 128.367188 54.648438 C 128.367188 59.652344 126.707031 63.519531 123.378906 66.242188 C 120.066406 68.972656 115.679688 70.34375 110.238281 70.34375 C 101.425781 70.34375 95.742188 67.355469 93.179688 61.382812 Z M 105.699219 33.179688 C 104.316406 34.539062 103.628906 36.28125 103.628906 38.40625 C 103.628906 40.527344 104.289062 42.265625 105.617188 43.605469 C 106.9375 44.953125 108.675781 45.621094 110.832031 45.621094 C 112.917969 45.621094 114.632812 44.941406 115.972656 43.582031 C 117.3125 42.214844 117.988281 40.492188 117.988281 38.40625 C 117.988281 36.28125 117.292969 34.539062 115.902344 33.179688 C 114.527344 31.816406 112.835938 31.140625 110.832031 31.140625 C 108.792969 31.140625 107.085938 31.816406 105.699219 33.179688 Z M 105.699219 33.179688 " fill-opacity="1" fill-rule="nonzero"/><path fill="#000000" d="M 131.363281 2.089844 L 141.992188 2.089844 L 141.992188 53.800781 L 131.363281 53.800781 Z M 131.363281 2.089844 " fill-opacity="1" fill-rule="nonzero"/><path fill="#000000" d="M 176.140625 39.851562 L 153.808594 39.851562 C 153.808594 42.023438 154.507812 43.628906 155.914062 44.667969 C 157.316406 45.699219 158.839844 46.21875 160.484375 46.21875 C 162.199219 46.21875 163.5625 45.992188 164.558594 45.539062 C 165.554688 45.074219 166.699219 44.164062 167.984375 42.804688 L 175.664062 46.640625 C 172.460938 52.015625 167.144531 54.699219 159.695312 54.699219 C 155.050781 54.699219 151.066406 53.105469 147.746094 49.921875 C 144.429688 46.734375 142.773438 42.90625 142.773438 38.421875 C 142.773438 33.929688 144.429688 30.082031 147.746094 26.875 C 151.066406 23.664062 155.050781 22.054688 159.695312 22.054688 C 164.578125 22.054688 168.550781 23.472656 171.617188 26.304688 C 174.675781 29.128906 176.210938 33.164062 176.210938 38.40625 C 176.210938 39.132812 176.1875 39.617188 176.140625 39.851562 Z M 154.109375 33.957031 L 165.824219 33.957031 C 165.578125 32.355469 164.941406 31.132812 163.917969 30.269531 C 162.902344 29.402344 161.597656 28.976562 159.996094 28.976562 C 158.234375 28.976562 156.835938 29.433594 155.796875 30.363281 C 154.75 31.28125 154.1875 32.480469 154.109375 33.957031 Z M 154.109375 33.957031 " fill-opacity="1" fill-rule="nonzero"/><g clip-path="url(#0de0acaf68)"><path fill="#000000" d="M 36.433594 19.003906 C 46.730469 19.003906 55.070312 27.363281 55.070312 37.675781 C 55.070312 38.257812 55.035156 38.835938 54.984375 39.410156 C 54.855469 40.433594 53.179688 51.230469 40.839844 49.828125 C 34.71875 49.148438 32.136719 42.265625 31.78125 37.585938 C 26.863281 51.152344 38.335938 56.101562 38.640625 56.230469 L 38.625 56.230469 C 32.550781 55.945312 26.152344 50.222656 26.96875 42.214844 C 27.589844 36.175781 32.179688 34.003906 33.417969 33.523438 C 33.511719 33.476562 33.625 33.433594 33.730469 33.410156 C 40.179688 31.691406 40.785156 34.84375 40.785156 34.84375 C 40.785156 34.84375 43.597656 31.28125 38.222656 28.710938 C 38.222656 28.710938 36.167969 28 33.988281 27.867188 C 33.324219 29.023438 31.992188 28.445312 31.992188 28.445312 L 31.214844 27.257812 C 30.90625 26.839844 30.054688 27.132812 30.054688 27.132812 C 30.738281 26.597656 31.28125 26.773438 31.28125 26.773438 C 31.332031 26.792969 31.433594 26.820312 31.5625 26.875 C 31.5625 26.875 35.25 27.398438 38.066406 28.375 C 37.582031 27.457031 35.84375 24.878906 31.109375 24.378906 C 24.628906 23.691406 18.898438 28.503906 17.894531 35.917969 C 17.886719 35.945312 17.886719 35.96875 17.882812 36.003906 C 18.722656 26.472656 26.703125 19.003906 36.433594 19.003906 Z M 32.707031 36.144531 C 32.707031 36.144531 33.273438 44.351562 38.933594 46.535156 C 44.597656 48.71875 49.726562 44.664062 49.726562 44.664062 C 37.308594 46.265625 32.707031 36.144531 32.707031 36.144531 Z M 32.707031 36.144531 " fill-opacity="1" fill-rule="nonzero"/></g><path fill="#000000" d="M 22.234375 72.511719 L 22.234375 61.511719 L 33.84375 61.511719 L 33.84375 63.613281 L 24.707031 63.613281 L 24.707031 66.835938 L 32.890625 66.835938 L 32.890625 68.917969 L 24.707031 68.917969 L 24.707031 72.511719 Z M 22.234375 72.511719 " fill-opacity="1" fill-rule="nonzero"/><path fill="#000000" d="M 36.492188 72.511719 L 36.492188 61.511719 L 38.964844 61.511719 L 38.964844 70.429688 L 47.777344 70.429688 L 47.777344 72.511719 Z M 36.492188 72.511719 " fill-opacity="1" fill-rule="nonzero"/><path fill="#000000" d="M 57.179688 72.675781 C 55.566406 72.675781 54.253906 72.453125 53.238281 72.007812 C 52.222656 71.554688 51.476562 70.90625 50.996094 70.058594 C 50.511719 69.21875 50.277344 68.195312 50.277344 67 C 50.277344 65.800781 50.511719 64.789062 50.996094 63.949219 C 51.476562 63.105469 52.222656 62.464844 53.238281 62.03125 C 54.253906 61.589844 55.566406 61.363281 57.179688 61.363281 C 58.785156 61.363281 60.09375 61.589844 61.109375 62.03125 C 62.121094 62.476562 62.867188 63.117188 63.355469 63.949219 C 63.84375 64.789062 64.089844 65.800781 64.089844 67 C 64.089844 68.195312 63.84375 69.21875 63.355469 70.058594 C 62.867188 70.902344 62.121094 71.542969 61.109375 71.996094 C 60.09375 72.449219 58.785156 72.675781 57.179688 72.675781 Z M 57.179688 70.578125 C 58.730469 70.578125 59.855469 70.300781 60.554688 69.746094 C 61.253906 69.1875 61.597656 68.269531 61.597656 67 C 61.597656 65.742188 61.253906 64.828125 60.554688 64.277344 C 59.867188 63.722656 58.738281 63.449219 57.179688 63.449219 C 55.628906 63.449219 54.503906 63.722656 53.796875 64.277344 C 53.097656 64.824219 52.75 65.730469 52.75 67 C 52.75 68.269531 53.097656 69.1875 53.796875 69.746094 C 54.503906 70.300781 55.628906 70.578125 57.179688 70.578125 Z M 57.179688 70.578125 " fill-opacity="1" fill-rule="nonzero"/><path fill="#000000" d="M 71.089844 72.511719 L 66.582031 61.511719 L 69.253906 61.511719 L 72.777344 70.265625 L 76.503906 61.511719 L 79.585938 61.511719 L 83.3125 70.265625 L 86.828125 61.511719 L 89.507812 61.511719 L 84.996094 72.511719 L 81.664062 72.511719 L 78.046875 64.125 L 74.421875 72.511719 Z M 71.089844 72.511719 " fill-opacity="1" fill-rule="nonzero"/></svg>